<svg
   width="499.99997mm"
   height="56.860744mm"
   viewBox="0 0 499.99996 56.860744"
   xmlns="http://www.w3.org/2000/svg"
   xmlns:svg="http://www.w3.org/2000/svg">
   <path
     style="-inkscape-font-specification:SpaceX;fill:#ececec;stroke-width:2.26089;stroke-linecap:round;stroke-linejoin:round"
     d="m 12.11786,20.533047 v 0 H -3.8295984e-6 L 25.996438,56.860744 53.158059,20.533047 H 46.451806 L 28.508047,44.121452 21.23215,33.634839 17.374112,28.093765 Z m 58.716401,34.566982 v 0 -34.566982 H 60.321756 v 34.566982 z m 61.978899,-21.82769 v 0 q 0,2.330359 -1.21696,4.246431 -1.19108,1.916072 -3.59911,3.055359 -2.40804,1.139286 -6.00715,1.139286 h -1.45 l 11.57411,13.386614 h -12.6875 l -10.5384,-12.325006 -0.93215,-1.061608 -5.12678,-5.981253 h 6.05893 6.47322 4.68661 q 1.21696,0 2.20089,-0.854465 0.98393,-0.880357 0.98393,-2.097322 v -3.314288 q 0,-1.216965 -0.98393,-2.071429 Q 121.26494,26.5143 120.04798,26.5143 H 93.48189 V 55.100029 H 82.969385 V 20.533047 h 39.020555 q 3.59911,0 6.00715,1.139286 2.40803,1.139286 3.59911,3.081252 1.21696,1.916072 1.21696,4.246431 z m 8.01816,-4.971431 v 0 q 0,-2.149108 1.24286,-3.909823 1.24285,-1.760716 3.49553,-2.79643 2.27858,-1.061608 5.35983,-1.061608 h 29.33662 q 3.08125,0 5.33393,1.061608 2.27857,1.035714 3.52143,2.79643 1.24286,1.760715 1.24286,3.909823 v 19.057153 q 0,2.123215 -1.24286,3.88393 -1.24286,1.760715 -3.52143,2.822323 -2.25268,1.035715 -5.33393,1.035715 h -29.33662 q -3.08125,0 -5.35983,-1.035715 -2.25268,-1.061608 -3.49553,-2.822323 -1.24286,-1.760715 -1.24286,-3.88393 z m 39.02055,20.817868 v 0 V 26.5143 h -28.50805 v 22.604476 z m 50.43068,-4.738395 v 0 q 4.19465,-3.262502 8.62233,-6.162504 l 22.86341,16.882152 h -17.0893 z m -3.57321,-15.14733 v 0 q -4.94554,2.925895 -9.0884,5.722325 L 198.22718,20.533047 h 16.7009 z m -29.23305,25.866978 v 0 q 0,0 2.22678,-2.175001 2.25268,-2.200894 6.73215,-5.903575 4.50536,-3.728573 11.21161,-8.38929 6.73215,-4.660716 15.69108,-9.683933 8.98483,-5.04911 20.17055,-9.891077 11.21161,-4.841967 24.65001,-8.881254 13.4384,-4.065181 29.10359,-6.7580395 15.69108,-2.69285856 33.58305,-3.41785893375583 0,0 -4.68661,0.62142889375583 -4.68661,0.59553604 -12.81697,2.14910824 -8.13036,1.5276794 -18.66876,4.2205379 -10.5384,2.6928585 -22.42322,6.8357174 -11.88483,4.116967 -24.05448,9.942863 -12.16965,5.800003 -23.53662,13.567864 -11.36697,7.767861 -20.86965,17.762509 z m 78.00659,-34.566982 v 0 H 322.9704 V 26.5143 h -47.48752 z m 10.5125,17.529473 v 0 11.056256 h 36.97502 v 5.981253 h -36.97502 -10.5125 V 49.118776 38.06252 32.081267 h 10.5125 21.46519 v 5.981253 z m 86.3182,-17.529473 v 0 q 3.08125,0 5.33393,1.061608 2.27858,1.035714 3.52143,2.79643 1.24286,1.760715 1.24286,3.909823 v 19.057153 q 0,2.123215 -1.24286,3.88393 -1.24285,1.760715 -3.52143,2.822323 -2.25268,1.035715 -5.33393,1.035715 H 332.87874 V 20.533047 Z m -0.41428,28.585729 v 0 V 26.5143 h -28.50805 v 22.604476 z m 59.51908,0 v 0 -11.522327 h 10.5125 v 11.522327 2.330358 3.650895 h -22.63037 -4.94554 -12.06607 q -3.08125,0 -5.35983,-1.035715 -2.25268,-1.061608 -3.49553,-2.822323 -1.24286,-1.760715 -1.24286,-3.88393 V 28.300908 q 0,-2.149108 1.24286,-3.909823 1.24285,-1.760716 3.49553,-2.79643 2.27858,-1.061608 5.35983,-1.061608 h 12.06607 4.94554 12.3509 q 3.05536,0 5.35983,0.932143 2.33035,0.932144 3.625,2.304466 1.29464,1.372322 1.29464,2.744644 h -22.63037 -4.94554 -11.65179 v 22.604476 h 11.65179 4.94554 z m 21.09407,-28.585729 v 0 h 47.48752 V 26.5143 h -47.48752 z m 10.5125,17.529473 v 0 11.056256 h 36.97502 v 5.981253 h -36.97502 -10.5125 V 49.118776 38.06252 32.081267 h 10.5125 21.46519 v 5.981253 z"
      />
</svg>
